<?xml version="1.0" encoding="UTF-8"?>
<!DOCTYPE svg PUBLIC "-//W3C//DTD SVG 1.1//EN" "http://www.w3.org/Graphics/SVG/1.1/DTD/svg11.dtd">
<svg version="1.1" xmlns="http://www.w3.org/2000/svg" xmlns:xlink="http://www.w3.org/1999/xlink" x="0" y="0" width="111" height="51" viewBox="0, 0, 37, 17">
  <g id="Layer_1">
    <path d="M0.356,13.961 L2.367,13.961 C2.655,14.765 3.546,15.3 4.682,15.3 C6.252,15.3 7.176,14.421 7.176,13.099 L7.176,11.517 L7.142,11.517 C6.591,12.563 5.446,13.25 4.055,13.25 C1.603,13.25 0,11.366 0,8.362 C0,5.332 1.595,3.423 4.106,3.423 C5.488,3.423 6.616,4.11 7.21,5.223 L7.244,5.223 L7.244,3.582 L9.195,3.582 L9.195,13.04 C9.195,15.342 7.397,16.84 4.614,16.84 C2.307,16.84 0.602,15.627 0.356,13.961 z M7.193,8.37 C7.193,6.395 6.167,5.089 4.598,5.089 C3.054,5.089 2.053,6.361 2.053,8.37 C2.053,10.387 3.054,11.609 4.598,11.609 C6.158,11.609 7.193,10.354 7.193,8.37 z" fill="#FFFFFF"/>
    <path d="M10.392,0 L12.393,0 L12.393,13.208 L10.392,13.208 L10.392,0 z" fill="#FFFFFF"/>
    <path d="M21.85,11.901 C20.953,12.772 19.723,13.309 18.365,13.309 C17.01,13.309 15.782,12.774 14.886,11.907 C16.921,10.325 19.813,10.323 21.85,11.901 z M21.907,11.845 C22.79,10.96 23.334,9.745 23.334,8.406 C23.334,7.069 22.793,5.858 21.914,4.974 C20.31,6.987 20.308,9.835 21.907,11.845 z M21.858,4.918 C19.817,6.503 16.916,6.501 14.878,4.912 C15.775,4.04 17.007,3.502 18.365,3.502 C19.726,3.502 20.96,4.043 21.858,4.918 z M14.824,4.965 C13.941,5.851 13.396,7.065 13.396,8.406 C13.396,9.749 13.943,10.966 14.83,11.852 C16.437,9.839 16.435,6.976 14.824,4.965 z" fill="#FFFFFF"/>
    <path d="M34.246,13.208 L32.16,13.208 L30.107,5.993 L30.064,5.993 L28.029,13.208 L25.959,13.208 L23.278,3.582 L25.28,3.582 L27.062,11.165 L27.095,11.165 L29.131,3.582 L31.065,3.582 L33.11,11.165 L33.152,11.165 L34.933,3.582 L36.918,3.582 L34.246,13.208 z" fill="#FFFFFF"/>
  </g>
</svg>
