<svg version="1.1" xmlns="http://www.w3.org/2000/svg" viewBox="0 0 1070.767291588379 175.37192045935637" width="2141.534583176758" height="350.74384091871275">
  <!-- svg-source:excalidraw -->
  
  <defs>
    <style>
      @font-face {
        font-family: "Virgil";
        src: url("https://excalidraw.com/Virgil.woff2");
      }
      @font-face {
        font-family: "Cascadia";
        src: url("https://excalidraw.com/Cascadia.woff2");
      }
    </style>
  </defs>
  <g stroke-linecap="round" transform="translate(10 10) rotate(0 96.929748623146 40.77389884528745)"><path d="M-1.55 -0.56 C56.87 -0.77, 113.97 -1.38, 195.82 0.17 M0.72 -0.52 C75.22 -2.46, 151.34 -2.11, 194.3 0.27 M195.35 0.15 C193.59 22.27, 194.87 41.53, 192.05 83.48 M194.66 -0.56 C194.07 31.63, 193.75 65.81, 194.04 82.17 M193.17 80.13 C135.43 82.25, 78.8 82.09, -0.11 82.59 M193.19 82.22 C142.44 79.26, 90.79 79.25, -0.61 81.88 M-0.29 80.82 C-1.18 54.9, 0.38 32.11, 0.56 -1.77 M0.19 81.69 C0.21 56.28, -0.56 30.12, 0.44 -0.04" stroke="#e67700" stroke-width="1" fill="none"></path></g><g transform="translate(60.41455895089484 33.0495251626042) rotate(0 48.5 18)"><text x="0" y="25" font-family="Virgil, Segoe UI Emoji" font-size="28px" fill="#e67700" text-anchor="start" style="white-space: pre;" direction="ltr">Pending</text></g><g stroke-linecap="round" transform="translate(291.2520153607047 12.680451550127827) rotate(0 96.929748623146 40.77389884528745)"><path d="M0.39 -0.54 C75.08 2.76, 152.74 3.16, 195.3 0.4 M-0.64 0.51 C39.64 -1.66, 78.39 -0.57, 192.96 0.04 M192.82 0.92 C191.42 31.03, 194.41 62.5, 195.37 82.19 M194.3 0.1 C194.11 27.6, 194.31 57.1, 194.69 81.18 M194.17 81.52 C137.11 79.59, 81.97 80.79, 0.55 81.21 M193.24 81.06 C151.75 79.71, 109.12 79.64, -0.27 80.83 M-0.97 83.4 C-1.35 51.28, -0.41 18.77, -0.66 0.6 M-0.39 82.42 C1.6 52.66, 1.68 23.97, -0.19 -0.56" stroke="#364fc7" stroke-width="1" fill="none"></path></g><g transform="translate(330.04794413450327 35.905333356198355) rotate(0 59.5 18)"><text x="0" y="25" font-family="Virgil, Segoe UI Emoji" font-size="28px" fill="#364fc7" text-anchor="start" style="white-space: pre;" direction="ltr">Pre Sale</text></g><g stroke-linecap="round" transform="translate(577.3989861690261 13.95303976271191) rotate(0 96.929748623146 40.77389884528745)"><path d="M-1.07 -0.67 C64.26 -1.24, 130.59 -2.99, 193.3 -0.76 M-0.59 0.56 C73.47 2.18, 146.76 2.57, 193.62 -0.39 M195.53 -1.65 C192.91 17.43, 194 34.21, 192.17 79.8 M193.99 -0.27 C192.98 31.99, 193.47 64.99, 193.1 81.64 M192.21 80.58 C126.35 81.96, 59.71 82.15, -0.16 83.22 M194.61 80.94 C150.37 82.05, 107.32 83.54, -0.18 80.95 M0.48 79.89 C-1.51 63.46, -0.91 46.69, -1.54 1.41 M0.99 81.15 C-0.75 55.72, -0.09 31.92, -0.91 -0.18" stroke="#5c940d" stroke-width="1" fill="none"></path></g><g transform="translate(614.7920617950945 35.52455893038581) rotate(0 58.5 18)"><text x="0" y="25" font-family="Virgil, Segoe UI Emoji" font-size="28px" fill="#5c940d" text-anchor="start" style="white-space: pre;" direction="ltr">For Sale</text></g><g stroke-linecap="round" transform="translate(866.9077943420871 12.485054147408277) rotate(0 96.929748623146 40.77389884528745)"><path d="M0.32 -0.92 C47.08 -0.09, 92.68 1.27, 192.07 -1.01 M-0.19 0.86 C47.04 2.34, 94.63 1.85, 193.33 -0.13 M193.33 -1.82 C193.4 18.23, 195.83 40.99, 193.62 83.19 M194.13 0.24 C193.67 17.43, 193.19 37.01, 194.56 81.97 M195.15 83.3 C124.69 80.4, 57.94 82.09, 0.64 82.54 M194.25 80.91 C143.42 81.05, 92.87 81.59, -0.09 81.72 M-1.88 82.38 C-1.91 50.27, -1.46 18.18, -1.64 -1.02 M-0.01 81.76 C1.55 51.32, 1.23 20.31, 0.03 0.96" stroke="#862e9c" stroke-width="1" fill="none"></path></g><g transform="translate(885.3823932330474 37.01759549475611) rotate(0 76.5 18)"><text x="0" y="25" font-family="Virgil, Segoe UI Emoji" font-size="28px" fill="#862e9c" text-anchor="start" style="white-space: pre;" direction="ltr">Sale Ended</text></g><g stroke-linecap="round"><g transform="translate(201.38411231342616 50.72620850799018) rotate(0 45.07514670782325 0.38611280130285763)"><path d="M-0.9 -0.8 C13.84 -0.35, 73.6 1.49, 88.65 1.58 M0.83 1.39 C15.95 1.6, 76.4 -0.01, 91.05 -0.18" stroke="#000000" stroke-width="1" fill="none"></path></g><g transform="translate(201.38411231342616 50.72620850799018) rotate(0 45.07514670782325 0.38611280130285763)"><path d="M61.73 9.63 C73.21 7.66, 78.95 5, 89.29 0.51 M62.54 9.88 C70.84 7.16, 76.95 6.09, 91.22 -0.77" stroke="#000000" stroke-width="1" fill="none"></path></g><g transform="translate(201.38411231342616 50.72620850799018) rotate(0 45.07514670782325 0.38611280130285763)"><path d="M61.33 -10.89 C72.74 -6.35, 78.61 -2.52, 89.29 0.51 M62.14 -10.64 C70.49 -8.29, 76.7 -4.3, 91.22 -0.77" stroke="#000000" stroke-width="1" fill="none"></path></g></g><g stroke-linecap="round"><g transform="translate(485.0259882150858 53.05093658137213) rotate(0 45.01468456452858 0.4899828979020526)"><path d="M0.86 -0.72 C15.96 -0.6, 75.34 -0.08, 90.18 0.39 M-0.15 1.51 C14.85 1.8, 74.53 1.73, 89.41 1.52" stroke="#000000" stroke-width="1" fill="none"></path></g><g transform="translate(485.0259882150858 53.05093658137213) rotate(0 45.01468456452858 0.4899828979020526)"><path d="M60.08 12.52 C67.51 9.05, 77.85 4.99, 88.77 0.37 M60.37 11.8 C72.21 6.73, 82.81 3.77, 90.12 2.38" stroke="#000000" stroke-width="1" fill="none"></path></g><g transform="translate(485.0259882150858 53.05093658137213) rotate(0 45.01468456452858 0.4899828979020526)"><path d="M59.95 -8 C67.36 -6.01, 77.74 -4.61, 88.77 0.37 M60.24 -8.72 C72.28 -5.65, 82.92 -0.47, 90.12 2.38" stroke="#000000" stroke-width="1" fill="none"></path></g></g><g stroke-linecap="round"><g transform="translate(771.0426940882608 55.135175543714524) rotate(0 49.472095737756945 0.07602589110010172)"><path d="M-0.4 0.69 C16.17 0.7, 82.83 0.86, 99.34 0.94 M1.59 0 C18.05 -0.4, 82.63 -0.68, 98.67 -0.79" stroke="#000000" stroke-width="1" fill="none"></path></g><g transform="translate(771.0426940882608 55.135175543714524) rotate(0 49.472095737756945 0.07602589110010172)"><path d="M71.68 10.52 C80.07 6.45, 88.8 1.67, 99.2 -0.47 M71.26 9.08 C76.92 8.16, 83.64 4.12, 98.38 -1.27" stroke="#000000" stroke-width="1" fill="none"></path></g><g transform="translate(771.0426940882608 55.135175543714524) rotate(0 49.472095737756945 0.07602589110010172)"><path d="M71.57 -10 C80.14 -7.99, 88.9 -6.68, 99.2 -0.47 M71.14 -11.44 C76.95 -7.55, 83.7 -6.76, 98.38 -1.27" stroke="#000000" stroke-width="1" fill="none"></path></g></g><g transform="translate(139.57340058645923 111.78462693217108) rotate(0 85.5 12.5)"><text x="0" y="18" font-family="Virgil, Segoe UI Emoji" font-size="20px" fill="#000000" text-anchor="start" style="white-space: pre;" direction="ltr">Mint Infos Added</text></g><g transform="translate(97.12206229817275 142.8417746036281) rotate(0 127 10)"><text x="0" y="16" font-family="Cascadia, Segoe UI Emoji" font-size="16px" fill="#000000" text-anchor="start" style="white-space: pre;" direction="ltr">num_configured == num_total</text></g><g transform="translate(473.9735094868952 111.3186792795322) rotate(0 56.5 12.5)"><text x="0" y="18" font-family="Virgil, Segoe UI Emoji" font-size="20px" fill="#000000" text-anchor="start" style="white-space: pre;" direction="ltr">Sale Begins</text></g><g transform="translate(446.6529444348439 145.37192045935637) rotate(0 89.5 10)"><text x="0" y="16" font-family="Cascadia, Segoe UI Emoji" font-size="16px" fill="#000000" text-anchor="start" style="white-space: pre;" direction="ltr">now &gt;= go_live_date</text></g><g transform="translate(767.9413865938136 112.76662413558273) rotate(0 49 12.5)"><text x="0" y="18" font-family="Virgil, Segoe UI Emoji" font-size="20px" fill="#000000" text-anchor="start" style="white-space: pre;" direction="ltr">Sale Ends</text></g><g transform="translate(714.627956790242 144.18450547359896) rotate(0 113 10)"><text x="0" y="16" font-family="Cascadia, Segoe UI Emoji" font-size="16px" fill="#000000" text-anchor="start" style="white-space: pre;" direction="ltr">num_redeemed = num_total</text></g></svg>