<svg viewBox="0 0 194 44" fill="none" xmlns="http://www.w3.org/2000/svg">
    <path fill-rule="evenodd" clip-rule="evenodd" d="M41.7932 40.1194C41.7932 42.6269 40.2962 44 38.0807 44C35.8353 44 34.3383 42.6269 34.3383 40.1194V17.4925H32.3623C30.6857 17.4925 29.4882 16.4776 29.4882 14.6567C29.4882 12.9254 30.6857 11.8507 32.3623 11.8507H34.3383V9.04478C34.3383 2.86567 37.3622 0.0298507 43.0805 0C47.0325 0 48.7989 1.25373 48.7989 3.10448C48.7989 4.23881 48.26 4.92537 47.1523 5.25373C46.6732 5.37313 46.1643 5.43284 45.5056 5.46269C42.7811 5.52239 41.6734 6.71642 41.6734 9.37313V11.7612H49H53.0184V7.55224C53.0184 5.16418 54.4555 3.67164 56.7608 3.67164C59.0362 3.67164 60.4733 5.16418 60.4733 7.55224V11.7612H63.9163C65.7725 11.7612 66.9102 12.8358 66.9102 14.597C66.9102 16.3881 65.7725 17.4925 63.9163 17.4925H60.4733V33.9701C60.4733 36.3582 61.3116 37.403 63.4672 37.5821L64.0061 37.6418C65.9821 37.8209 67 38.6567 67 40.3881C67 42.5672 65.0839 43.7313 61.6708 43.7313H61.3714C55.8327 43.7313 53.0184 40.9851 53.0184 35.5821V17.4925H49H41.7932V40.1194ZM7.45485 40.0896C7.45485 42.597 5.89802 44 3.71246 44C1.5269 44 0 42.597 0 40.0896V14.8955C0 12.597 1.34726 11.1343 3.56276 11.1343C5.74832 11.1343 7.24528 12.597 7.24528 14.8955V17.1045H7.39498C9.10151 13.3433 12.3948 11.1642 17.2749 11.1642C24.2807 11.1642 28.2626 15.6418 28.2626 22.9552V40.0896C28.2626 42.597 26.7357 44 24.5501 44C22.3646 44 20.8077 42.597 20.8077 40.0896V24.4478C20.8077 19.9701 18.712 17.4627 14.4606 17.4627C10.1793 17.4627 7.45485 20.5373 7.45485 25.0746V40.0896ZM97.5966 20.3519C99.4049 17.3807 98.5443 16.6017 96.8232 15.0437C95.9531 14.2561 94.9868 13.5481 93.9292 12.9375C92.88 12.3318 91.7927 11.8519 90.6847 11.4931C88.4761 10.7779 87.3717 10.4203 85.6975 13.4691C84.0232 16.5178 84.9615 17.294 86.838 18.8465C88.4887 20.2121 90.3595 21.2942 92.3662 22.0442C94.6476 22.8968 95.7883 23.3231 97.5966 20.3519ZM91.0423 34.3201C90.1933 36.5659 89.7689 37.6888 92.7526 39.5036C95.7364 41.3183 96.5005 40.4671 98.0289 38.7647C98.7978 37.9081 99.4899 36.9593 100.088 35.9228C100.679 34.9002 101.15 33.8414 101.505 32.7627C102.223 30.5861 102.582 29.4979 99.5203 27.8136C96.4588 26.1293 95.6946 27.0598 94.1663 28.9209C92.8381 30.5382 91.7818 32.3639 91.0423 34.3201ZM84.1315 36.1701C85.9895 37.6908 86.9184 38.4511 85.2414 41.5143C83.5644 44.5776 82.4776 44.2225 80.3041 43.5123C79.2107 43.1551 78.1377 42.6797 77.1019 42.0817C76.0744 41.4885 75.1332 40.8034 74.2826 40.0426C72.5782 38.5184 71.726 37.7562 73.5355 34.7693C75.345 31.7824 76.4687 32.2048 78.716 33.0496C80.6781 33.7872 82.5096 34.8426 84.1315 36.1701ZM80.0385 20.6683C80.8873 18.3856 81.3117 17.2443 78.3373 15.4411C75.3629 13.6379 74.5853 14.4997 73.0302 16.2234C72.2501 17.088 71.5484 18.0472 70.9426 19.0964C70.332 20.1539 69.8493 21.2502 69.4896 22.3673C68.778 24.5771 68.4223 25.682 71.474 27.3511C74.5257 29.0201 75.3004 28.0806 76.8498 26.2016C78.2126 24.5488 79.2918 22.6762 80.0385 20.6683ZM109.763 43.9704C111.961 43.9704 113.497 42.5768 113.497 40.0863V32.5849L116.327 29.9757L125.901 41.9245C126.985 43.4663 127.858 43.9704 129.333 43.9704C131.411 43.9704 132.886 42.6065 132.886 40.6792C132.886 39.7305 132.645 39.0782 131.862 38.0108L121.867 25.7062L130.959 17.2264C131.983 16.2776 132.314 15.5957 132.314 14.4987C132.314 12.7197 130.899 11.3261 129.032 11.3261C127.888 11.3261 127.075 11.7412 126.112 12.7493L113.587 24.9353H113.497V3.8841C113.497 1.39353 111.961 0 109.763 0C107.566 0 106 1.39353 106 3.8841V40.0863C106 42.5768 107.566 43.9704 109.763 43.9704ZM148.449 44C154.531 44 159.288 41.6577 161.396 37.655C161.727 37.0027 161.907 36.3504 161.907 35.7871C161.907 34.0081 160.583 32.9407 158.897 32.9407C157.843 32.9407 157.15 33.2668 156.368 34.1267C153.959 37.1509 151.761 38.3073 148.389 38.3073C143.512 38.3073 140.411 34.9272 140.411 29.6792V29.442H159.228C161.456 29.442 162.72 28.1375 162.72 25.9434C162.72 17.4043 156.759 11.2965 148.028 11.2965C138.815 11.2965 132.944 17.7601 132.944 27.7817C132.944 37.9811 138.695 44 148.449 44ZM140.471 24.5795C140.772 20.0728 143.843 17.0189 148.058 17.0189C152.273 17.0189 155.224 20.0135 155.374 24.5795H140.471ZM173.075 40.0863C173.075 42.5768 171.51 43.9704 169.312 43.9704C167.114 43.9704 165.579 42.5768 165.579 40.0863V15.062C165.579 12.779 166.933 11.3261 169.161 11.3261C171.359 11.3261 172.865 12.779 172.865 15.062V17.2561H173.015C174.731 13.5202 178.043 11.3558 182.951 11.3558C189.996 11.3558 194 15.8032 194 23.0674V40.0863C194 42.5768 192.465 43.9704 190.267 43.9704C188.069 43.9704 186.503 42.5768 186.503 40.0863V24.5499C186.503 20.1024 184.396 17.6119 180.12 17.6119C175.815 17.6119 173.075 20.6658 173.075 25.1725V40.0863Z" fill="currentColor"/>
</svg>
